<svg xmlns="http://www.w3.org/2000/svg" dispaly="none">
    <symbol id="phone" viewBox="0 0 15 15" fill="none">
        <path d="M14.2191 11.5692L11.001 8.64316C10.8489 8.5049 10.649 8.43116 10.4435 8.43751C10.238 8.44386 10.0431 8.52981 9.89977 8.67721L8.00531 10.6255C7.54931 10.5384 6.63256 10.2526 5.68889 9.31133C4.74522 8.36687 4.45943 7.44775 4.37472 6.99491L6.32143 5.09966C6.46901 4.95647 6.55508 4.76148 6.56143 4.55595C6.56779 4.35042 6.49392 4.15049 6.35547 3.99845L3.43026 0.781121C3.29176 0.628612 3.09925 0.536103 2.89364 0.523243C2.68802 0.510383 2.48549 0.578184 2.32906 0.712246L0.61114 2.18554C0.47427 2.3229 0.392576 2.50573 0.381557 2.69933C0.369682 2.89725 0.143265 7.5855 3.7786 11.2224C6.95001 14.393 10.9226 14.625 12.0167 14.625C12.1766 14.625 12.2748 14.6202 12.3009 14.6187C12.4945 14.6078 12.6772 14.5258 12.8139 14.3883L14.2864 12.6696C14.421 12.5136 14.4893 12.3113 14.4767 12.1057C14.4641 11.9001 14.3717 11.7075 14.2191 11.5692Z" fill="#DCD7C0"/>
<path d="M14.2191 11.5692L11.001 8.64316C10.8489 8.5049 10.649 8.43116 10.4435 8.43751C10.238 8.44386 10.0431 8.52981 9.89977 8.67721L8.00531 10.6255C7.54931 10.5384 6.63256 10.2526 5.68889 9.31133C4.74522 8.36687 4.45943 7.44775 4.37472 6.99491L6.32143 5.09966C6.46901 4.95647 6.55508 4.76148 6.56143 4.55595C6.56779 4.35042 6.49392 4.15049 6.35547 3.99845L3.43026 0.781121C3.29176 0.628612 3.09925 0.536103 2.89364 0.523243C2.68802 0.510383 2.48549 0.578184 2.32906 0.712246L0.61114 2.18554C0.47427 2.3229 0.392576 2.50573 0.381557 2.69933C0.369682 2.89725 0.143265 7.5855 3.7786 11.2224C6.95001 14.393 10.9226 14.625 12.0167 14.625C12.1766 14.625 12.2748 14.6202 12.3009 14.6187C12.4945 14.6078 12.6772 14.5258 12.8139 14.3883L14.2864 12.6696C14.421 12.5136 14.4893 12.3113 14.4767 12.1057C14.4641 11.9001 14.3717 11.7075 14.2191 11.5692Z" fill="url(#paint0_linear_222_17)"/>
<defs>
<linearGradient id="paint0_linear_222_17" x1="4.96305" y1="0.521693" x2="9.86905" y2="2.02073" gradientUnits="userSpaceOnUse">
<stop stop-color="#E0DEDE"/>
<stop offset="0.983598" stop-color="#A2A0A0"/>
</linearGradient>
</defs>
    </symbol>
    <symbol id="instagram" viewBox="0 0 448 512">
<path d="M224.1 141c-63.6 0-114.9 51.3-114.9 114.9s51.3 114.9 114.9 114.9S339 319.5 339 255.9 287.7 141 224.1 141zm0 189.6c-41.1 0-74.7-33.5-74.7-74.7s33.5-74.7 74.7-74.7 74.7 33.5 74.7 74.7-33.6 74.7-74.7 74.7zm146.4-194.3c0 14.9-12 26.8-26.8 26.8-14.9 0-26.8-12-26.8-26.8s12-26.8 26.8-26.8 26.8 12 26.8 26.8zm76.1 27.2c-1.7-35.9-9.9-67.7-36.2-93.9-26.2-26.2-58-34.4-93.9-36.2-37-2.1-147.9-2.1-184.9 0-35.8 1.7-67.6 9.9-93.9 36.1s-34.4 58-36.2 93.9c-2.1 37-2.1 147.9 0 184.9 1.7 35.9 9.9 67.7 36.2 93.9s58 34.4 93.9 36.2c37 2.1 147.9 2.1 184.9 0 35.9-1.7 67.7-9.9 93.9-36.2 26.2-26.2 34.4-58 36.2-93.9 2.1-37 2.1-147.8 0-184.8zM398.8 388c-7.8 19.6-22.9 34.7-42.6 42.6-29.5 11.7-99.5 9-132.1 9s-102.7 2.6-132.1-9c-19.6-7.8-34.7-22.9-42.6-42.6-11.7-29.5-9-99.5-9-132.1s-2.6-102.7 9-132.1c7.8-19.6 22.9-34.7 42.6-42.6 29.5-11.7 99.5-9 132.1-9s102.7-2.6 132.1 9c19.6 7.8 34.7 22.9 42.6 42.6 11.7 29.5 9 99.5 9 132.1s2.7 102.7-9 132.1z"></path>
    </symbol>
        <symbol id="vk" viewBox="0 0 576 512">
            <path d="M545 117.7c3.7-12.5 0-21.7-17.8-21.7h-58.9c-15 0-21.9 7.9-25.6 16.7 0 0-30 73.1-72.4 120.5-13.7 13.7-20 18.1-27.5 18.1-3.7 0-9.4-4.4-9.4-16.9V117.7c0-15-4.2-21.7-16.6-21.7h-92.6c-9.4 0-15 7-15 13.5 0 14.2 21.2 17.5 23.4 57.5v86.8c0 19-3.4 22.5-10.9 22.5-20 0-68.6-73.4-97.4-157.4-5.8-16.3-11.5-22.9-26.6-22.9H38.8c-16.8 0-20.2 7.9-20.2 16.7 0 15.6 20 93.1 93.1 195.5C160.4 378.1 229 416 291.4 416c37.5 0 42.1-8.4 42.1-22.9 0-66.8-3.4-73.1 15.4-73.1 8.7 0 23.7 4.4 58.7 38.1 40 40 46.6 57.9 69 57.9h58.9c16.8 0 25.3-8.4 20.4-25-11.2-34.9-86.9-106.7-90.3-111.5-8.7-11.2-6.2-16.2 0-26.2.1-.1 72-101.3 79.4-135.6z"></path>
    </symbol>
        <symbol id="facebook" viewBox="0 0 320 512">
        <path d="M279.14 288l14.22-92.66h-88.91v-60.13c0-25.35 12.42-50.06 52.24-50.06h40.42V6.26S260.43 0 225.36 0c-73.22 0-121.08 44.38-121.08 124.72v70.62H22.89V288h81.39v224h100.17V288z"></path>
    </symbol>
        <symbol id="pinterest" viewBox="0 0 384 512">
<path d="M204 6.5C101.4 6.5 0 74.9 0 185.6 0 256 39.6 296 63.6 296c9.9 0 15.6-27.6 15.6-35.4 0-9.3-23.7-29.1-23.7-67.8 0-80.4 61.2-137.4 140.4-137.4 68.1 0 118.5 38.7 118.5 109.8 0 53.1-21.3 152.7-90.3 152.7-24.9 0-46.2-18-46.2-43.8 0-37.8 26.4-74.4 26.4-113.4 0-66.2-93.9-54.2-93.9 25.8 0 16.8 2.1 35.4 9.6 50.7-13.8 59.4-42 147.9-42 209.1 0 18.9 2.7 37.5 4.5 56.4 3.4 3.8 1.7 3.4 6.9 1.5 50.4-69 48.6-82.5 71.4-172.8 12.3 23.4 44.1 36 69.3 36 106.2 0 153.9-103.5 153.9-196.8C384 71.3 298.2 6.5 204 6.5z" class=""></path>
    </symbol>
</svg> 